<svg width="220" height="104" viewBox="0 0 220 104" fill="none" xmlns="http://www.w3.org/2000/svg">
<path d="M154.408 0C155.083 7.55098e-05 155.733 0.269129 156.21 0.746094L165.821 10.3574C166.817 11.3527 168.431 11.3527 169.426 10.3574L179.037 0.746094C179.514 0.269123 180.164 3.88427e-05 180.839 0H216.699C218.107 0.000197804 219.247 1.14055 219.247 2.54785V38.4199C219.247 39.0951 218.978 39.7447 218.501 40.2217L208.896 49.8271C207.9 50.8224 207.9 52.4364 208.896 53.4316L218.501 63.0371C218.978 63.5141 219.247 64.1637 219.247 64.8389V100.711C219.247 102.118 218.106 103.259 216.699 103.259H180.839C180.164 103.259 179.514 102.99 179.037 102.513L169.426 92.9014C168.43 91.9061 166.817 91.9061 165.821 92.9014L156.21 102.513C155.733 102.99 155.083 103.259 154.408 103.259H118.548C117.141 103.259 116 102.118 116 100.711V64.8389C116 64.1636 116.269 63.5141 116.746 63.0371L126.352 53.4316C127.347 52.4364 127.347 50.8224 126.352 49.8271L116.746 40.2217C116.269 39.7447 116 39.0951 116 38.4199V2.54785C116 1.14051 117.141 0.000129672 118.548 0H154.408ZM55.8105 0V0.0117188C82.012 0.0117188 103.247 22.0654 103.247 47.4502C103.247 72.8348 83.3176 93.5589 58.2529 94.8291C56.8887 94.8978 55.8107 96.0088 55.8105 97.375V100.709C55.8104 102.116 54.6701 103.257 53.2627 103.257H38.1094C37.4342 103.257 36.7846 102.99 36.3076 102.511L0.746094 66.9453C0.269124 66.4683 6.98262e-05 65.8188 0 65.1436V2.54785C0.00013159 1.14051 1.14051 0.000131694 2.54785 0H55.8105Z" fill="#2C2C2C"/>
</svg>
