<svg width="16" height="16" viewBox="0 0 16 16" fill="none" xmlns="http://www.w3.org/2000/svg">
<circle cx="8" cy="8" r="8" fill="url(#paint0_linear_3474_79)"/>
<path d="M2.34277 5.33105L5.16016 5.33203C6.54576 5.3321 7.66895 6.49838 7.66895 7.84082C7.66889 9.18325 6.61457 10.2795 5.28906 10.3467C5.21698 10.3504 5.16016 10.4092 5.16016 10.4814V10.6572C5.16016 10.7316 5.09978 10.7919 5.02539 10.792H4.22363C4.18816 10.7919 4.15404 10.778 4.12891 10.7529L2.24805 8.87207C2.22282 8.84684 2.20898 8.81208 2.20898 8.77637V5.46582C2.20912 5.39166 2.26864 5.33131 2.34277 5.33105ZM10.374 5.33105C10.4097 5.33105 10.4445 5.34587 10.4697 5.37109L10.9785 5.87891C11.0312 5.93138 11.1164 5.93149 11.1689 5.87891L11.6768 5.37109C11.702 5.34587 11.7367 5.33105 11.7725 5.33105H13.6689C13.7432 5.3312 13.8036 5.39159 13.8037 5.46582V7.36328C13.8037 7.39892 13.7888 7.43282 13.7637 7.45801L13.2559 7.9668C13.2035 8.01945 13.2033 8.10467 13.2559 8.15723L13.7637 8.66504C13.7889 8.69027 13.8037 8.72503 13.8037 8.76074V10.6572C13.8037 10.7316 13.7433 10.7918 13.6689 10.792H11.7725C11.7368 10.792 11.702 10.7781 11.6768 10.7529L11.1689 10.2441C11.1164 10.1916 11.0312 10.1919 10.9785 10.2441L10.4697 10.7529C10.4445 10.7781 10.4097 10.792 10.374 10.792H8.47754C8.40331 10.7917 8.34277 10.7315 8.34277 10.6572V8.76074C8.34277 8.72503 8.35758 8.69027 8.38281 8.66504L8.89062 8.15723C8.94321 8.10464 8.94311 8.01945 8.89062 7.9668L8.38281 7.45801C8.35772 7.43283 8.34281 7.39887 8.34277 7.36328V5.46582C8.34291 5.39165 8.4034 5.3313 8.47754 5.33105H10.374Z" fill="#2C2C2C"/>
<defs>
<linearGradient id="paint0_linear_3474_79" x1="0" y1="0" x2="18.9269" y2="7.54453" gradientUnits="userSpaceOnUse">
<stop stop-color="#ACE59E"/>
<stop offset="1" stop-color="#FAF1E2"/>
</linearGradient>
</defs>
</svg>
